<svg xmlns="http://www.w3.org/2000/svg" viewBox="0 0 512 512">
  <rect width="512" height="512" rx="96" fill="#1a1a2e"/>
  <g transform="translate(256,240)">
    <!-- Map pin -->
    <path d="M0-120 C-55-120-100-75-100-20 C-100,40 0,130 0,130 C0,130 100,40 100-20 C100-75 55-120 0-120Z" fill="#f0c27a" opacity="0.9"/>
    <circle cx="0" cy="-20" r="35" fill="#1a1a2e"/>
    <!-- Plane inside pin -->
    <path d="M0-40 L12-15 L5-15 L5,5 L12,5 L0,20 L-12,5 L-5,5 L-5-15 L-12-15Z" fill="#f0c27a"/>
  </g>
  <!-- Small dots for itinerary -->
  <circle cx="160" cy="400" r="10" fill="#f7b731" opacity="0.7"/>
  <circle cx="220" cy="410" r="10" fill="#26de81" opacity="0.7"/>
  <circle cx="280" cy="395" r="10" fill="#fc5c65" opacity="0.7"/>
  <circle cx="340" cy="405" r="10" fill="#a55eea" opacity="0.7"/>
</svg>
